<svg width="57" height="57" viewBox="0 0 57 57" fill="none" xmlns="http://www.w3.org/2000/svg">
<path d="M28.5 57C44.2401 57 57 44.2401 57 28.5C57 12.7599 44.2401 0 28.5 0C12.7599 0 0 12.7599 0 28.5C0 44.2401 12.7599 57 28.5 57Z" fill="#0269C7"/>
<path d="M28.5 33.0803C34.9647 33.0803 40.2054 27.8396 40.2054 21.3749C40.2054 14.9102 34.9647 9.66958 28.5 9.66958C22.0353 9.66958 16.7946 14.9102 16.7946 21.3749C16.7946 27.8396 22.0353 33.0803 28.5 33.0803Z" fill="white"/>
<path d="M28.5 57C39.8218 57 49 51.6274 49 45C49 38.3726 39.8218 33 28.5 33C17.1782 33 8 38.3726 8 45C8 51.6274 17.1782 57 28.5 57Z" fill="white"/>
</svg>
