<svg width="33" height="41" viewBox="0 0 33 41" fill="none" xmlns="http://www.w3.org/2000/svg">
<path d="M28.0879 5.29233H21.8615C21.5509 2.59904 19.2595 0.5 16.4842 0.5C13.709 0.5 11.4178 2.59896 11.1072 5.29233H4.88056C2.36081 5.29233 0.311096 7.34262 0.311096 9.86229V10.0968C0.311096 12.0223 1.51003 13.6704 3.19898 14.3419V35.93C3.19898 38.4498 5.24894 40.5 7.76853 40.5H25.2C27.7196 40.5 29.7694 38.4496 29.7694 35.93V14.342C31.4583 13.6704 32.6573 12.0223 32.6573 10.0969V9.86237C32.6573 7.34262 30.6075 5.29233 28.0879 5.29233ZM16.4842 2.66728C18.0626 2.66728 19.3801 3.79864 19.6716 5.29233H13.2973C13.5887 3.79856 14.9063 2.66728 16.4842 2.66728ZM27.6022 35.93C27.6022 37.2548 26.5243 38.3328 25.1999 38.3328H7.76844C6.44406 38.3328 5.36618 37.2548 5.36618 35.93V14.6667H27.6022V35.93ZM30.49 10.0968C30.49 11.4216 29.4122 12.4995 28.0878 12.4995H4.88056C3.55617 12.4995 2.4783 11.4216 2.4783 10.0968V9.86229C2.4783 8.53749 3.55617 7.45953 4.88056 7.45953H28.0879C29.4122 7.45953 30.4901 8.53749 30.4901 9.86229V10.0968H30.49Z" fill="#A20000"/>
<path d="M10.6744 35.5611C11.2729 35.5611 11.758 35.0759 11.758 34.4776V22.2765C11.758 21.6782 11.2728 21.1929 10.6744 21.1929C10.076 21.1929 9.59079 21.6782 9.59079 22.2765V34.4776C9.59071 35.076 10.0759 35.5611 10.6744 35.5611Z" fill="#A20000"/>
<path d="M16.4841 35.5611C17.0826 35.5611 17.5678 35.0759 17.5678 34.4776V22.2765C17.5678 21.6782 17.0824 21.1929 16.4841 21.1929C15.8858 21.1929 15.4005 21.6782 15.4005 22.2765V34.4776C15.4005 35.076 15.8857 35.5611 16.4841 35.5611Z" fill="#A20000"/>
<path d="M22.2939 35.5611C22.8923 35.5611 23.3775 35.0759 23.3775 34.4776V22.2765C23.3775 21.6782 22.8923 21.1929 22.2939 21.1929C21.6954 21.1929 21.2103 21.6782 21.2103 22.2765V34.4776C21.2102 35.076 21.6956 35.5611 22.2939 35.5611Z" fill="#A20000"/>
</svg>
