<svg width="28" height="30" viewBox="0 0 28 30" fill="none" xmlns="http://www.w3.org/2000/svg">
<path d="M27.847 28.1501L19.6891 19.666C21.7699 17.5792 23.059 14.7023 23.059 11.5295C23.059 5.1718 17.8872 0 11.5295 0C5.1718 0 0 5.1718 0 11.5295C0 17.8872 5.1718 23.059 11.5295 23.059C14.3202 23.059 16.8814 22.0614 18.8776 20.4061L27.0553 28.911C27.1629 29.0236 27.3068 29.0795 27.4511 29.0795C27.5884 29.0795 27.7251 29.0285 27.8316 28.9264C28.0501 28.7161 28.0567 28.3686 27.847 28.1501ZM11.5295 21.9609C5.77737 21.9609 1.09805 17.2816 1.09805 11.5295C1.09805 5.77737 5.77737 1.09805 11.5295 1.09805C17.2816 1.09805 21.9609 5.77737 21.9609 11.5295C21.9609 17.2816 17.281 21.9609 11.5295 21.9609Z" fill="#0269C7"/>
</svg>
