<svg width="44" height="41" viewBox="0 0 44 41" fill="none" xmlns="http://www.w3.org/2000/svg">
<path d="M43.1116 15.2801L38.7944 10.8901C38.6627 10.7562 38.4831 10.6824 38.289 10.6824C38.0686 10.6824 37.8436 10.7797 37.671 10.9493L21.7758 26.5809C21.613 26.7411 21.4469 26.991 21.3732 27.1857L18.7647 33.9651C18.6798 34.1892 18.7114 34.4418 18.849 34.6411C18.9889 34.8435 19.2171 34.9644 19.4596 34.9644C19.5434 34.9644 19.6259 34.9501 19.7083 34.9205L26.5237 32.4277C26.7228 32.3565 26.9757 32.1946 27.1387 32.0341L43.0339 16.4025C43.2083 16.2308 43.3093 16.0049 43.3111 15.7823C43.3125 15.5905 43.2415 15.4119 43.1116 15.2801Z" fill="#0F4A06"/>
<path d="M30.1917 33.9044C29.8786 33.9044 29.493 34.3549 29.4803 34.3703C28.9922 34.8496 28.334 35.2628 27.6744 35.5037L20.8228 38.0472C20.3032 38.2338 19.8574 38.3244 19.459 38.3244C18.1594 38.3244 16.924 37.6597 16.1542 36.5464C15.4017 35.4579 15.2315 34.0686 15.699 32.8302L18.3136 26.0246C18.5589 25.3836 18.9839 24.7366 19.4794 24.2495L29.554 14.3395C30.3396 13.5375 30.3139 12.6843 30.1905 12.3453C29.9015 11.5506 29.4297 10.8431 28.8962 10.404L18.3597 1.74622C17.4821 1.02407 15.9973 0.5 14.829 0.5H2.68808C1.20584 0.500116 0 1.68361 0 3.13827C0.000232765 3.48753 0.0187375 38.0633 0.0187375 38.2446C0.0187375 39.5656 0.943627 40.4881 2.26806 40.4881C3.10729 40.4881 27.9362 40.5 27.9362 40.5C29.3891 40.5 30.5712 39.2984 30.5712 37.8212V34.6777C30.5712 34.1645 30.4435 33.9044 30.1917 33.9044ZM16.4889 3.95341L28.097 13.0694H18.3034C16.5764 13.0694 16.4889 11.5876 16.4889 11.2905V3.95341ZM4.73431 16.6772H18.4674C19.4315 16.6772 20.2132 17.4589 20.2132 18.423C20.2132 19.3871 19.4315 20.1687 18.4674 20.1687H4.73431C3.7702 20.1687 2.98858 19.3871 2.98858 18.423C2.98858 17.4589 3.7702 16.6772 4.73431 16.6772ZM12.2992 37.7424H4.73431C3.7702 37.7424 2.98858 36.9608 2.98858 35.9967C2.98858 35.0326 3.7702 34.251 4.73431 34.251H12.2992C13.2633 34.251 14.0449 35.0326 14.0449 35.9967C14.0449 36.9608 13.2633 37.7424 12.2992 37.7424ZM12.2992 28.8974H4.73431C3.7702 28.8974 2.98858 28.1158 2.98858 27.1517C2.98858 26.1875 3.7702 25.4059 4.73431 25.4059H12.2992C13.2633 25.4059 14.0449 26.1875 14.0449 27.1517C14.0449 28.1158 13.2633 28.8974 12.2992 28.8974ZM19.459 38.4407C19.4564 38.4407 19.454 38.4405 19.4515 38.4405C19.4542 38.4405 19.4569 38.4407 19.4596 38.4407C19.4593 38.4407 19.4592 38.4407 19.459 38.4407Z" fill="#0F4A06"/>
</svg>
